<svg id="svg" version="1.1" xmlns="http://www.w3.org/2000/svg" style="display: block;" data--h-bstatus="0OBSERVED" viewBox="0 0 350 350"><path d="M0 0 C115.5 0 231 0 350 0 C350 115.5 350 231 350 350 C234.5 350 119 350 0 350 C0 234.5 0 119 0 0 Z " transform="translate(0,0)" style="fill: #000000;" data--h-bstatus="0OBSERVED"/><path d="M0 0 C1.0725 0.23589844 2.145 0.47179688 3.25 0.71484375 C14.41827213 3.36425137 22.93322197 9.03672587 31.625 16.375 C32.21925781 16.87257813 32.81351563 17.37015625 33.42578125 17.8828125 C46.82628165 30.14350022 53.28338118 48.13734158 54.28198242 66.00878906 C54.51548798 81.72277943 49.45097337 97.48256387 39.875 109.875 C39.07578125 110.9165625 38.2765625 111.958125 37.453125 113.03125 C36.84984375 113.8046875 36.2465625 114.578125 35.625 115.375 C38.32290318 116.82104885 40.80419864 117.77320369 43.78515625 118.453125 C67.75894063 124.16782041 85.57533652 137.43542482 98.625 158.375 C110.37432359 178.51669758 110.86462414 201.05652587 105.375 223 C99.41973288 245.4832272 83.81401952 262.34807195 64.046875 273.87890625 C40.56936934 285.6545734 15.93849976 284.4254575 -8.375 276.375 C-27.51916317 268.43098054 -44.17706881 251.74146228 -52.25 232.65234375 C-57.73497666 216.6735402 -60.47654138 202.08776438 -57.375 185.375 C-56.9966212 183.10472722 -56.62144361 180.83391777 -56.25 178.5625 C-55.95917202 176.83319208 -55.66783444 175.10396929 -55.375 173.375 C-55.93445313 173.76171875 -56.49390625 174.1484375 -57.0703125 174.546875 C-64.17099008 179.15889066 -71.19522983 181.37015437 -79.375 183.375 C-81.05722656 183.82552734 -81.05722656 183.82552734 -82.7734375 184.28515625 C-94.44157094 187.26454899 -104.23448752 186.62085032 -115.875 183.75 C-116.92558594 183.51410156 -117.97617188 183.27820313 -119.05859375 183.03515625 C-135.87807194 178.9810175 -150.54266969 168.53875335 -160.375 154.375 C-161.00148438 153.51132813 -161.62796875 152.64765625 -162.2734375 151.7578125 C-166.92304352 144.98939867 -169.40012191 138.31108417 -171.375 130.375 C-171.82359375 128.63476562 -171.82359375 128.63476562 -172.28125 126.859375 C-176.82387416 107.76352897 -173.20817994 88.5493256 -163.734375 71.40625 C-157.75678798 62.00460829 -151.58798924 54.9236326 -142.4375 48.5625 C-141.45342163 47.87800781 -141.45342163 47.87800781 -140.44946289 47.1796875 C-132.27354178 41.70282001 -124.01154068 38.73780009 -114.4375 36.625 C-113.51259766 36.40457031 -112.58769531 36.18414062 -111.63476562 35.95703125 C-102.68648183 33.937867 -94.6737451 33.77529527 -85.75 35.875 C-84.54085937 36.1534375 -83.33171875 36.431875 -82.0859375 36.71875 C-81.19132812 36.9353125 -80.29671875 37.151875 -79.375 37.375 C-79.12363281 36.6634375 -78.87226562 35.951875 -78.61328125 35.21875 C-72.59459326 21.39665266 -58.95353764 9.53688184 -45.375 3.375 C-41.23800679 2.02351344 -37.05560515 1.0214367 -32.8125 0.0625 C-31.72775391 -0.20111328 -30.64300781 -0.46472656 -29.52539062 -0.73632812 C-18.64071756 -3.28071132 -10.85207074 -2.60294298 0 0 Z " transform="translate(206.375,34.625)" style="fill: #C93036;" data--h-bstatus="0OBSERVED"/><path d="M0 0 C0 0.66 0 1.32 0 2 C0.94875 2.309375 1.8975 2.61875 2.875 2.9375 C6 4 6 4 8 5 C8 5.66 8 6.32 8 7 C8.72316406 7.24363281 9.44632813 7.48726562 10.19140625 7.73828125 C17.73954568 11.12917003 23.99079029 18.54075589 29 25 C29 25.66 29 26.32 29 27 C29.66 27 30.32 27 31 27 C36.15429936 47.18401697 39.3446651 65.7927135 29 85 C28.34 85 27.68 85 27 85 C27 85.99 27 86.98 27 88 C26.34 88 25.68 88 25 88 C24.92136719 88.73089844 24.84273437 89.46179688 24.76171875 90.21484375 C23.0963694 96.30404418 16.63279755 101.04843239 11.5625 104.5625 C9 106 9 106 7 106 C7 106.66 7 107.32 7 108 C2.34313168 109.89431932 -0.96005348 111.13621477 -6 111 C-6.75152344 111.31195313 -7.50304687 111.62390625 -8.27734375 111.9453125 C-18.27749491 115.81911568 -28.98593445 113.61687095 -39 111 C-39.66 110.67 -40.32 110.34 -41 110 C-41.17015625 110.76183594 -41.3403125 111.52367187 -41.515625 112.30859375 C-43.06563881 118.91264197 -44.97721166 124.92373512 -48 131 C-48.66 131 -49.32 131 -50 131 C-50 131.99 -50 132.98 -50 134 C-50.66 134 -51.32 134 -52 134 C-52.12375 134.7425 -52.2475 135.485 -52.375 136.25 C-53.74863204 142.29398099 -56.78547317 144.59708953 -61.8125 148 C-63.04910112 148.85282836 -64.28479398 149.70697535 -65.51953125 150.5625 C-66.11443359 150.97064941 -66.70933594 151.37879883 -67.32226562 151.79931641 C-68.83869174 152.88455849 -70.2790601 154.074189 -71.70703125 155.2734375 C-74.42089759 157.316928 -76.61684404 157.52585825 -79.95703125 157.7890625 C-83.07899485 158.11140673 -85.99265829 159.12513696 -89 160 C-91.32787927 160.36950465 -93.66045145 160.71352467 -96 161 C-96 161.33 -96 161.66 -96 162 C-111.35648953 163.12731163 -127.15653157 159.73606051 -140 151 C-140.8353125 150.44957031 -141.670625 149.89914063 -142.53125 149.33203125 C-156.58764954 139.15849516 -165.80407631 121.782872 -169 105 C-170.55955738 91.24306227 -168.28643305 76.92325408 -161 65 C-158.6875 62.5 -158.6875 62.5 -156 60 C-154.97443293 58.75388087 -153.95408417 57.50345815 -152.9375 56.25 C-148.06552014 50.60366572 -141.14499735 44.38166578 -134 42 C-133.505 41.01 -133.505 41.01 -133 40 C-129.9375 39.375 -129.9375 39.375 -127 39 C-127 38.34 -127 37.68 -127 37 C-114.51132297 32.62896304 -102.92219125 31.02864099 -90 35 C-87.33236673 35.45388303 -84.69419417 35.71640061 -82 36 C-82 36.66 -82 37.32 -82 38 C-81.01 38 -80.02 38 -79 38 C-78.34 35.36 -77.68 32.72 -77 30 C-76.34 30 -75.68 30 -75 30 C-74.73574219 29.42894531 -74.47148437 28.85789062 -74.19921875 28.26953125 C-70.49949796 21.26777953 -64.77822308 15.33374439 -59 10 C-58.43796875 9.401875 -57.8759375 8.80375 -57.296875 8.1875 C-44.81731898 -3.58183738 -15.46322125 -6.42795007 0 0 Z " transform="translate(212,47)" style="fill: #DF888B;" data--h-bstatus="0OBSERVED"/><path d="M0 0 C9.75312069 7.28598513 16.88748333 18.48698284 19.375 30.4375 C19.62627258 32.28633717 19.83338661 34.14161985 20 36 C20.09410156 37.00675781 20.18820312 38.01351562 20.28515625 39.05078125 C20.91104582 52.19446227 16.427638 63.9899574 8 74 C7.45085937 74.69480469 6.90171875 75.38960938 6.3359375 76.10546875 C-1.85820696 85.43668612 -15.36526239 91.19546323 -27.60546875 92.3359375 C-36.44525847 92.43233652 -43.7684918 91.22738095 -52 88 C-53.10601562 87.58427734 -53.10601562 87.58427734 -54.234375 87.16015625 C-67.02994918 81.60687706 -76.04130197 69.34693944 -81.0546875 56.796875 C-85.00188191 45.11839897 -84.27356174 31.48122756 -79.6015625 20.1796875 C-73.12755036 7.32640487 -62.59032308 -2.88049857 -49 -8 C-31.28262654 -13.29099271 -15.22282784 -10.01218521 0 0 Z " transform="translate(263,193)" style="fill: #FEFEFE;" data--h-bstatus="0OBSERVED"/><path d="M0 0 C0 0.66 0 1.32 0 2 C0.721875 1.896875 1.44375 1.79375 2.1875 1.6875 C6.11029414 2.12336602 7.25169192 4.25169192 10 7 C11.155 7.33 12.31 7.66 13.5 8 C17.80508868 9.23002534 19.0561072 10.63555108 22 14 C22.76183594 14.80695313 23.52367187 15.61390625 24.30859375 16.4453125 C31 23.60647426 31 23.60647426 31 27 C31.598125 27.2475 32.19625 27.495 32.8125 27.75 C36.75320233 30.0018299 38.29902899 33.23677906 39.53515625 37.484375 C39.91317383 38.76441406 39.91317383 38.76441406 40.29882812 40.0703125 C40.6768457 41.39675781 40.6768457 41.39675781 41.0625 42.75 C41.31837891 43.61882812 41.57425781 44.48765625 41.83789062 45.3828125 C42.5779329 47.91683899 43.29326185 50.45650672 44 53 C44.30345337 54.05513794 44.30345337 54.05513794 44.61303711 55.1315918 C48.60044044 69.73534449 45.47836461 83.92204915 41 98 C40.74976074 98.8151709 40.49952148 99.6303418 40.24169922 100.47021484 C39.98791504 101.27281738 39.73413086 102.07541992 39.47265625 102.90234375 C39.24457275 103.62800537 39.01648926 104.35366699 38.78149414 105.10131836 C37.54390096 108.10811692 35.38291655 109.83371222 33 112 C31.92174643 113.42572148 30.86080033 114.86461225 29.8125 116.3125 C24.86366134 122.78822324 18.75220659 128.25500158 11 131 C11 131.66 11 132.32 11 133 C6.2161269 135.24549146 2.29052618 136.36148822 -3 137 C-8.0349349 138.01724491 -13.04409723 139.18437908 -17.99609375 140.55078125 C-32.27433718 143.75155707 -50.64952242 137.48725206 -62.875 130.25 C-70.75048007 125.08110551 -77.45144601 118.73565553 -84 112 C-85.2684375 110.8553125 -85.2684375 110.8553125 -86.5625 109.6875 C-98.62498671 96.38783517 -98.56553936 75.67172996 -98.14941406 58.82128906 C-97.77434543 51.73911084 -95.66594413 45.52576759 -93 39 C-92.34 39 -91.68 39 -91 39 C-90.75378906 38.11957031 -90.50757813 37.23914063 -90.25390625 36.33203125 C-85.24503883 23.02186332 -70.20485942 10.86044795 -58 4 C-54.60546875 3.25 -54.60546875 3.25 -52 3 C-52 2.34 -52 1.68 -52 1 C-36.24531997 -5.69573901 -16.19660752 -4.57315977 0 0 Z M-57 28 C-57.76054687 28.58652344 -58.52109375 29.17304688 -59.3046875 29.77734375 C-68.81415114 37.60584159 -75.88761944 48.6453678 -77.22314453 61.07714844 C-78.35863388 77.31571399 -74.64296824 91.02016977 -63.828125 103.5078125 C-54.57467428 113.17607308 -43.20641112 119.26581241 -29.6875 120.23828125 C-14.11205557 120.55177007 -0.12364128 116.13993752 11.3125 105.25 C20.50724678 95.47238497 26.11688783 83.97428521 26.375 70.375 C26.29093841 68.24798715 26.16774078 66.12205397 26 64 C25.92910156 63.08605469 25.85820312 62.17210937 25.78515625 61.23046875 C24.20992895 49.14192668 17.68218242 37.15103334 8.05078125 29.7265625 C-11.48709902 15.46442968 -36.9544687 12.05973433 -57 28 Z " transform="translate(257,165)" style="fill: #E0888B;" data--h-bstatus="0OBSERVED"/><path d="M0 0 C1.30324219 -0.0309375 1.30324219 -0.0309375 2.6328125 -0.0625 C14.14053104 -0.13161543 23.96185767 5.09405228 32.4375 12.75 C41.29253116 22.0369839 44.77818757 33.73183089 44.5234375 46.29296875 C43.67781882 58.53027903 37.72912338 68.1627835 29.0625 76.5625 C18.19314417 85.80425865 4.93904726 87.31473757 -8.75 86.25 C-20.02826141 84.11920934 -29.70872082 76.67492069 -36.31640625 67.484375 C-43.68564006 55.99881168 -44.78829202 42.3677869 -42.1015625 29.03125 C-37.58669793 16.83725679 -27.51252721 7.70904971 -16.046875 2.1953125 C-10.71684808 0.00166197 -5.69348305 0.03319815 0 0 Z " transform="translate(107.75,101.75)" style="fill: #FEFEFE;" data--h-bstatus="0OBSERVED"/><path d="M0 0 C9.25756444 6.34507226 14.55703776 15.77966704 16.8359375 26.6796875 C17.94214258 36.52672617 15.523211 46.53493856 9.6484375 54.5546875 C1.61881681 63.80657603 -6.9988118 68.43255454 -19.20703125 70.09375 C-29.63883072 70.61740704 -38.77392563 67.13350666 -46.6640625 60.3671875 C-50.60793587 56.50001831 -53.77290779 52.66611988 -56.1640625 47.6796875 C-56.48117188 47.02871094 -56.79828125 46.37773438 -57.125 45.70703125 C-60.56596952 37.26245008 -60.68602647 26.7745417 -57.5390625 18.2421875 C-52.55681999 7.75691058 -44.29192725 -0.66141304 -33.23046875 -4.66015625 C-21.58360449 -7.16757034 -10.2059077 -6.22670903 0 0 Z " transform="translate(211.1640625,70.3203125)" style="fill: #FEFEFE;" data--h-bstatus="0OBSERVED"/><path d="M0 0 C2.88509855 2.60647532 4.82650453 5.6254446 6.9375 8.875 C17.14281242 24.56640523 31.49241937 32.61771827 49.671875 36.50390625 C59.02271126 37.96620602 59.02271126 37.96620602 68 36 C70.125 36.4375 70.125 36.4375 72 37 C72.495 36.01 72.495 36.01 73 35 C75.31 35 77.62 35 80 35 C71.08216636 40.94522243 57.53758157 40.3789275 47.34960938 38.51513672 C36.96285147 36.11008484 27.44279057 32.66613377 19 26 C17.93458984 25.18402344 17.93458984 25.18402344 16.84765625 24.3515625 C10.10916062 18.84177528 4.02025788 11.74363518 0 4 C0 2.68 0 1.36 0 0 Z " transform="translate(49,171)" style="fill: #D2565A;" data--h-bstatus="0OBSERVED"/><path d="M0 0 C0.66 0 1.32 0 2 0 C1.00172041 5.30849852 -0.1378768 10.49314075 -1.625 15.6875 C-5.66282091 31.79758139 -2.51816353 49.35821214 5 64 C6.54982949 66.48310555 8.1742184 68.7047317 10 71 C9.505 71.99 9.505 71.99 9 73 C-0.36156127 64.67861221 -4.39587235 50.67428045 -5.16113281 38.41967773 C-5.37293935 24.61900429 -5.26823187 12.8957154 0 0 Z " transform="translate(164,204)" style="fill: #D56064;" data--h-bstatus="0OBSERVED"/><path d="M0 0 C0.66 0 1.32 0 2 0 C11.46588757 19.02787552 11.78193969 41.55000184 5.1328125 61.6171875 C4.4737577 63.43115738 3.74735267 65.22058888 3 67 C2.34 67 1.68 67 1 67 C1.18175781 66.42894531 1.36351562 65.85789062 1.55078125 65.26953125 C2.40242576 62.52243177 3.20610042 59.76434404 4 57 C4.28617187 56.03449219 4.57234375 55.06898438 4.8671875 54.07421875 C9.37819557 37.16867897 6.81136519 22.62824927 1.66430664 6.18798828 C1.04170035 4.13734603 0.50052692 2.0834025 0 0 Z " transform="translate(295,200)" style="fill: #D45A5E;" data--h-bstatus="0OBSERVED"/><path d="M0 0 C0.33 0.66 0.66 1.32 1 2 C0.443125 3.051875 -0.11375 4.10375 -0.6875 5.1875 C-8.03851768 19.47972252 -8.55229966 35.39569637 -6 51 C-9.70918755 45.43621867 -10.39026161 39.56783559 -10.375 33 C-10.37338867 32.26595947 -10.37177734 31.53191895 -10.37011719 30.77563477 C-10.14070825 20.31166351 -7.4042961 10.00716017 -2 1 C-1.34 0.67 -0.68 0.34 0 0 Z " transform="translate(53,111)" style="fill: #D56165;" data--h-bstatus="0OBSERVED"/><path d="M0 0 C0.495 1.485 0.495 1.485 1 3 C0.03125 4.5078125 0.03125 4.5078125 -1.5 6.125 C-3.94738123 8.79129835 -6.12508615 11.50815448 -8.25 14.4375 C-13.18979331 20.84825399 -19.30643215 26.27576512 -27 29 C-27 29.66 -27 30.32 -27 31 C-31.455 32.485 -31.455 32.485 -36 34 C-33.13110422 31.13110422 -30.38432087 29.20770808 -27 27 C-18.18951267 20.8561535 -11.19330585 14.40715755 -4.625 5.9375 C-4.08875 5.298125 -3.5525 4.65875 -3 4 C-2.34 4 -1.68 4 -1 4 C-0.67 2.68 -0.34 1.36 0 0 Z " transform="translate(295,267)" style="fill: #D55E63;" data--h-bstatus="0OBSERVED"/><path d="M0 0 C-2.78573856 0.79553553 -5.1899317 1.10280159 -8.08203125 1.02734375 C-8.84966797 1.01509766 -9.61730469 1.00285156 -10.40820312 0.99023438 C-11.99944567 0.95533304 -13.59060405 0.91633146 -15.18164062 0.87304688 C-20.1821322 0.80202903 -24.18288286 1.49024499 -29 3 C-31.71562756 3.21794764 -34.26760245 3.0958736 -37 3 C-26.60996324 -3.92669118 -11.50498405 -3.7406101 0 0 Z " transform="translate(122,82)" style="fill: #D45D62;" data--h-bstatus="0OBSERVED"/><path d="M0 0 C0.495 0.99 0.495 0.99 1 2 C0.11441406 2.02578125 -0.77117187 2.0515625 -1.68359375 2.078125 C-10.65819926 2.48903306 -18.91605889 3.92878697 -27.61328125 6.16015625 C-31 7 -31 7 -33 7 C-33 6.34 -33 5.68 -33 5 C-21.70929278 1.37869642 -11.89970856 -0.78980367 0 0 Z " transform="translate(197,43)" style="fill: #D45C60;" data--h-bstatus="0OBSERVED"/><path d="M0 0 C0.66 0.33 1.32 0.66 2 1 C-0.37521981 5.84579517 -3.52550707 8.13721733 -7.875 11.0625 C-9.10247432 11.90622708 -10.32905251 12.7512595 -11.5546875 13.59765625 C-12.14258057 13.99968262 -12.73047363 14.40170898 -13.33618164 14.81591797 C-14.85441282 15.89639064 -16.30154482 17.07502775 -17.73828125 18.26171875 C-20.47550403 20.36545647 -22.6032384 20.68402218 -26 21 C-23.20873198 18.00796792 -20.45993379 15.9396961 -16.9375 13.875 C-10.57117983 9.93680464 -5.37960061 5.17149227 0 0 Z " transform="translate(158,184)" style="fill: #D55F63;" data--h-bstatus="0OBSERVED"/><path d="M0 0 C5.67633627 1.34663833 8.51522688 4.01743897 12.375 8.125 C12.92027344 8.68832031 13.46554688 9.25164063 14.02734375 9.83203125 C15.3609075 11.21238671 16.68177679 12.60498709 18 14 C17.67 14.66 17.34 15.32 17 16 C16.443125 15.40832031 15.88625 14.81664063 15.3125 14.20703125 C10.98130597 9.72219689 6.92666194 5.96011439 1.43359375 2.97265625 C0.96050781 2.65167969 0.48742187 2.33070312 0 2 C0 1.34 0 0.68 0 0 Z " transform="translate(220,52)" style="fill: #D3595D;" data--h-bstatus="0OBSERVED"/><path d="M0 0 C0.33 0 0.66 0 1 0 C1.32058433 4.86705306 0.44909012 7.91713927 -1.75 12.25 C-2.26046875 13.28640625 -2.7709375 14.3228125 -3.296875 15.390625 C-5.04072375 18.06239327 -6.04471427 18.94637639 -9 20 C-9 19.34 -9 18.68 -9 18 C-8.34 18 -7.68 18 -7 18 C-7 17.01 -7 16.02 -7 15 C-6.34 15 -5.68 15 -5 15 C-4.87753906 14.28457031 -4.75507813 13.56914062 -4.62890625 12.83203125 C-3.98864625 9.94887287 -3.06448444 7.41407527 -1.9375 4.6875 C-1.39416016 3.36298828 -1.39416016 3.36298828 -0.83984375 2.01171875 C-0.56269531 1.34785156 -0.28554687 0.68398437 0 0 Z " transform="translate(169,163)" style="fill: #D25458;" data--h-bstatus="0OBSERVED"/><path d="M0 0 C0.66 0 1.32 0 2 0 C1.34 3.3 0.68 6.6 0 10 C-9.10714286 8.125 -9.10714286 8.125 -13 6 C-10.36 6 -7.72 6 -5 6 C-5 6.66 -5 7.32 -5 8 C-4.01 8 -3.02 8 -2 8 C-1.34 5.36 -0.68 2.72 0 0 Z " transform="translate(135,77)" style="fill: #D66266;" data--h-bstatus="0OBSERVED"/><path d="M0 0 C4.20240011 3.71750779 6.99782679 8.31660979 10 13 C9.67 13.66 9.34 14.32 9 15 C4.73347598 11.2075342 2.10519025 7.32766024 0 2 C0 1.34 0 0.68 0 0 Z " transform="translate(164,262)" style="fill: #D3575B;" data--h-bstatus="0OBSERVED"/><path d="M0 0 C0.33 0 0.66 0 1 0 C1.792745 6.02486203 -0.65509091 11.10586986 -4 16 C-6.171875 17.296875 -6.171875 17.296875 -8 18 C-8 17.34 -8 16.68 -8 16 C-7.34 16 -6.68 16 -6 16 C-6 15.01 -6 14.02 -6 13 C-5.34 13 -4.68 13 -4 13 C-3.896875 12.34 -3.79375 11.68 -3.6875 11 C-2.80786436 7.16158991 -1.43030104 3.66903309 0 0 Z " transform="translate(245,119)" style="fill: #D25459;" data--h-bstatus="0OBSERVED"/><path d="M0 0 C5.21979128 -0.1799928 9.07262981 0.02905192 14 2 C14 2.33 14 2.66 14 3 C8.78020872 3.1799928 4.92737019 2.97094808 0 1 C0 0.67 0 0.34 0 0 Z " transform="translate(198,45)" style="fill: #D45D61;" data--h-bstatus="0OBSERVED"/></svg>